<?xml version="1.0" encoding="iso-8859-1"?>
<!-- Generator: Adobe Illustrator 18.1.1, SVG Export Plug-In . SVG Version: 6.00 Build 0)  -->
<svg version="1.1" id="Capa_1" xmlns="http://www.w3.org/2000/svg" xmlns:xlink="http://www.w3.org/1999/xlink" x="0px" y="0px"
	 viewBox="0 0 28.05 28.05" style="enable-background:new 0 0 28.05 28.05;" xml:space="preserve">
<g>
	<path d="M25.353,0H2.699c-1.25,0-2.265,1-2.265,2.232V25.82c0,1.23,1.015,2.23,2.265,2.23h22.654c1.248,0,2.264-1,2.264-2.23V2.232
		C27.617,1,26.601,0,25.353,0z M4.055,1.68h19.941c1.1,0,1.993,0.877,1.993,1.965v3.852H2.063V3.645
		C2.063,2.557,2.954,1.68,4.055,1.68z M2.063,24.408V9.668h6.896v16.705H4.055C2.954,26.373,2.063,25.492,2.063,24.408z
		 M23.996,26.373H11.215V9.668h14.774v14.74C25.99,25.492,25.096,26.373,23.996,26.373z"/>
	<g>
	</g>
	<g>
	</g>
	<g>
	</g>
	<g>
	</g>
	<g>
	</g>
	<g>
	</g>
	<g>
	</g>
	<g>
	</g>
	<g>
	</g>
	<g>
	</g>
	<g>
	</g>
	<g>
	</g>
	<g>
	</g>
	<g>
	</g>
	<g>
	</g>
</g>
<g>
</g>
<g>
</g>
<g>
</g>
<g>
</g>
<g>
</g>
<g>
</g>
<g>
</g>
<g>
</g>
<g>
</g>
<g>
</g>
<g>
</g>
<g>
</g>
<g>
</g>
<g>
</g>
<g>
</g>
</svg>
